<?xml version="1.0" encoding="UTF-8" standalone="no"?>
<!-- Created with Inkscape (http://www.inkscape.org/) -->

<svg
   xmlns:dc="http://purl.org/dc/elements/1.1/"
   xmlns:cc="http://creativecommons.org/ns#"
   xmlns:rdf="http://www.w3.org/1999/02/22-rdf-syntax-ns#"
   xmlns:svg="http://www.w3.org/2000/svg"
   xmlns="http://www.w3.org/2000/svg"
   xmlns:sodipodi="http://sodipodi.sourceforge.net/DTD/sodipodi-0.dtd"
   xmlns:inkscape="http://www.inkscape.org/namespaces/inkscape"
   id="svg2"
   version="1.1"
   inkscape:version="0.91 r13725"
   xml:space="preserve"
   width="582.16003"
   height="810"
   viewBox="0 0 582.16005 810"
   sodipodi:docname="publicdomainq-business-man-strong.svg"
   inkscape:export-filename="/media/sdb1/_GRAFIKA/Publicdomainq/lidi/publicdomainq-business-man-strong.png"
   inkscape:export-xdpi="90.024696"
   inkscape:export-ydpi="90.024696"><title
     id="title7771">Business man - strong</title><metadata
     id="metadata8"><rdf:RDF><cc:Work
         rdf:about=""><dc:format>image/svg+xml</dc:format><dc:type
           rdf:resource="http://purl.org/dc/dcmitype/StillImage" /><dc:title>Business man - strong</dc:title><cc:license
           rdf:resource="http://creativecommons.org/publicdomain/zero/1.0/" /><dc:subject><rdf:Bag><rdf:li>man</rdf:li><rdf:li>male</rdf:li><rdf:li>muscle</rdf:li><rdf:li>biceps</rdf:li><rdf:li>strong</rdf:li><rdf:li>office</rdf:li><rdf:li>happy</rdf:li><rdf:li>suit</rdf:li><rdf:li>tie</rdf:li><rdf:li>publicdomainq.net</rdf:li></rdf:Bag></dc:subject><dc:description>This image was adapted from a picture posted to publicdomainq.net. All of the images on these sites are in the public domain i.e. CC0. This site is only in Japanese but can be easily navigated with Google Translate.</dc:description></cc:Work><cc:License
         rdf:about="http://creativecommons.org/publicdomain/zero/1.0/"><cc:permits
           rdf:resource="http://creativecommons.org/ns#Reproduction" /><cc:permits
           rdf:resource="http://creativecommons.org/ns#Distribution" /><cc:permits
           rdf:resource="http://creativecommons.org/ns#DerivativeWorks" /></cc:License></rdf:RDF></metadata><defs
     id="defs6" /><sodipodi:namedview
     pagecolor="#ffffff"
     bordercolor="#666666"
     borderopacity="1"
     objecttolerance="10"
     gridtolerance="10"
     guidetolerance="10"
     inkscape:pageopacity="0"
     inkscape:pageshadow="2"
     inkscape:window-width="1920"
     inkscape:window-height="1125"
     id="namedview4"
     showgrid="false"
     inkscape:zoom="0.77074334"
     inkscape:cx="83.927836"
     inkscape:cy="374.84746"
     inkscape:window-x="0"
     inkscape:window-y="0"
     inkscape:window-maximized="1"
     inkscape:current-layer="svg2"
     fit-margin-top="5"
     fit-margin-left="5"
     fit-margin-bottom="5"
     fit-margin-right="5" /><g
     id="g12"
     transform="matrix(0.45307214,0,0,-0.45307214,5,804.95527)"><path
       d="m 92.9766,472.719 c 0,0 23.8474,-42.789 104.2814,-28.078 11.621,-17.93 57.586,-39.243 95.945,-12.95 65.52,44.918 43.633,167.008 34.258,205.161 -9.375,38.16 -61.797,39.207 -61.797,39.207 l -5.762,2.953 c -24.629,15.547 -54.863,5 -54.863,5"
       style="fill:#ffffff;fill-opacity:1;fill-rule:nonzero;stroke:none"
       id="path14"
       inkscape:connector-curvature="0" /><path
       d="m 1086.8,9.80859 c 0,0 97.42,274.97241 103.33,365.00041 6.67,101.66 -30,146.66 -78.33,176.66 -12.96,8.051 -32.45,10.281 -55.17,19.5 -55.75,29.16 -143.153,57.179 -143.153,57.179 l -5.247,9.692 c -9.5,25.648 -30.269,32.519 -36.082,34.18 l -137.46,0 c -5.372,-1.54 -23.504,-7.52 -33.719,-28.649 l -7.492,-8.562 c -46.668,8.339 -201.25,1.25 -201.25,1.25 l -221.25,7.91 -36.661,-201.66 30.684,-2.321 150.215,-37.168 22.851,-15.511 4.161,-36.25 42.91,-337.9106 601.663,-3.33981"
       style="fill:#ffffff;fill-opacity:1;fill-rule:nonzero;stroke:none"
       id="path16"
       inkscape:connector-curvature="0" /><path
       d="m 1168.89,247.469 c -66.67,-60 -257.562,-90.16 -257.562,-90.16 0,0 -74.363,-30 -115.832,-30 -71.902,0 -207.09,42.312 -206.101,42.312 -50.352,11.348 -90.008,31.481 -128.067,56.848 L 485.137,13.1484 1098,9.80859 c 0,0 43.95,150.27341 70.89,237.66041"
       style="fill:#cddcef;fill-opacity:1;fill-rule:nonzero;stroke:none"
       id="path18"
       inkscape:connector-curvature="0" /><path
       d="m 868.34,631.57 c 0.098,18.93 -2.254,63.989 -2.254,63.989 l -131.242,0 c 0,0 -1.106,-47.559 -0.703,-60.668 0,0 16.172,-59.391 69.648,-59.391 53.457,0 64.551,56.07 64.551,56.07"
       style="fill:#fcd0b4;fill-opacity:1;fill-rule:nonzero;stroke:none"
       id="path20"
       inkscape:connector-curvature="0" /><path
       d="m 402.988,1147.59 c -21.25,59.59 -17.234,93.79 -17.234,93.79 l -16.906,-32.31 c -77.5,302.08 86.25,356.82 86.25,356.82 0,0 -64.825,20 -63.035,83.75 0,0 89.285,-21.25 187.617,36.25 91.011,53.23 220.156,89.63 350.84,64.69 117.91,-22.5 140.83,-106.09 140.83,-106.09 0,0 117.1,-16.81 161.25,-142.91 47.5,-135.69 7.5,-266.94 7.5,-266.94 l -12.2,36.06 c 0,0 -2.61,-53.52 -32.82,-124.55 l -12.9,-36.25 -761.66,-16.66 -17.532,54.35"
       style="fill:#7b4b4b;fill-opacity:1;fill-rule:nonzero;stroke:none"
       id="path22"
       inkscape:connector-curvature="0" /><path
       d="m 404.68,1142.35 15.84,-49.11 23.113,0.51 -38.535,48.24 c -0.086,0.02 -0.274,0.23 -0.418,0.36 z m 827.92,359.23 c -44.15,126.1 -161.25,142.91 -161.25,142.91 0,0 -22.92,83.59 -140.83,106.09 -130.684,24.94 -259.829,-11.46 -350.84,-64.69 -98.332,-57.5 -187.617,-36.25 -187.617,-36.25 -1.79,-63.75 63.035,-83.75 63.035,-83.75 0,0 -163.75,-54.74 -86.25,-356.82 l 2.754,5.27 c -0.696,3.12 -1.258,6.14 -1.504,8.9 -23.75,270 124.09,341.7 124.09,341.7 0,0 15.597,49.39 113.925,106.89 91.02,53.21 210.063,79.79 341.582,59.72 129.435,-19.75 128.395,-126.18 128.395,-126.18 0,0 122.92,-23.84 167.66,-150.65 -3.36,15.43 -7.63,31.12 -13.15,46.86"
       style="fill:#c79485;fill-opacity:1;fill-rule:nonzero;stroke:none"
       id="path24"
       inkscape:connector-curvature="0" /><path
       d="m 490.098,927.211 c -106.25,-5 -153.75,141.589 -116.25,194.089 27.05,37.88 81.687,13.53 91.906,-7.23"
       style="fill:#fcd0b4;fill-opacity:1;fill-rule:nonzero;stroke:none"
       id="path26"
       inkscape:connector-curvature="0" /><path
       d="m 463.379,1054.98 c 10.027,-28.71 22.937,-71.156 3.309,-78.023 -19.645,-6.855 -43.692,10.852 -53.708,39.563 -10.042,28.7 -2.25,57.55 17.379,64.4 19.668,6.87 22.993,2.75 33.02,-25.94"
       style="fill:#de9284;fill-opacity:1;fill-rule:nonzero;stroke:none"
       id="path28"
       inkscape:connector-curvature="0" /><path
       d="m 1115.1,927.211 c 106.25,-5 153.75,141.589 116.25,194.089 -27.05,37.88 -81.69,13.53 -91.91,-7.23"
       style="fill:#fcd0b4;fill-opacity:1;fill-rule:nonzero;stroke:none"
       id="path30"
       inkscape:connector-curvature="0" /><path
       d="m 737.02,714.352 126.972,0 1.379,-64.18 c 0,0 -68.191,-57.063 -131.941,-22.891 l 2.398,37.688 1.192,49.383"
       style="fill:#de9284;fill-opacity:1;fill-rule:nonzero;stroke:none"
       id="path32"
       inkscape:connector-curvature="0" /><path
       d="m 599.543,1453.65 c -126.945,-31.51 -133.195,-244.58 -133.195,-244.58 -2.891,-113.57 2.226,-308.773 71.25,-383.105 68.562,-73.824 135,-109.996 193.75,-127.496 0,0 72.5,-24.18 142.5,0 58.75,17.5 125.183,53.672 193.752,127.496 75.22,81.004 74.56,307.425 70.32,411.275 -1.25,30.76 -18.15,65.94 -25.53,74.71 -107.29,127.69 -106.99,206.63 -106.99,206.63 l -15.095,-18.15 c -27.668,-27.64 -78.606,-55.15 -171.797,-68.85 0,0 33.34,113.32 60,133.32 0,0 -116.66,-148.32 -306.66,-183.32 0,0 5.972,25.71 21.48,59.28 l 6.215,12.79"
       style="fill:#fcd0b4;fill-opacity:1;fill-rule:nonzero;stroke:none"
       id="path34"
       inkscape:connector-curvature="0" /><path
       d="m 706.887,1295.82 c -4.121,-3.46 -15.024,3.39 -30.742,12.97 -15.532,9.39 -37.2,21.26 -57.793,18.28 -20.735,-2.46 -38.547,-19.16 -49.153,-32.36 -11.047,-13.39 -15.207,-23.54 -20.359,-24.01 -2.531,-0.15 -5.356,3.16 -6.485,9.76 -1.117,6.53 -0.441,15.98 3.258,26.65 3.711,10.64 10.317,22.72 21.313,33.8 10.816,10.96 27.027,21.06 46.558,23.52 19.536,2.62 37.778,-3.06 50.864,-10.63 13.34,-7.61 22.742,-16.86 29.507,-25.11 13.403,-16.75 16.86,-29.71 13.032,-32.87"
       style="fill:#231f20;fill-opacity:1;fill-rule:nonzero;stroke:none"
       id="path36"
       inkscape:connector-curvature="0" /><path
       d="m 898.313,1295.82 c -3.833,3.16 -0.375,16.12 13.027,32.87 6.765,8.25 16.172,17.5 29.512,25.11 13.086,7.57 31.328,13.25 50.859,10.63 19.529,-2.46 35.739,-12.56 46.559,-23.52 11,-11.08 17.6,-23.16 21.31,-33.8 3.7,-10.67 4.38,-20.12 3.25,-26.65 -1.12,-6.6 -3.95,-9.91 -6.49,-9.76 -5.15,0.47 -9.3,10.62 -20.34,24.01 -10.61,13.2 -28.42,29.9 -49.152,32.36 -20.598,2.98 -42.27,-8.89 -57.793,-18.28 -15.727,-9.58 -26.621,-16.43 -30.742,-12.97"
       style="fill:#231f20;fill-opacity:1;fill-rule:nonzero;stroke:none"
       id="path38"
       inkscape:connector-curvature="0" /><path
       d="m 641.23,1023.69 c 0,-13.71 -30.839,-24.807 -68.875,-24.807 -38.046,0 -68.886,11.097 -68.886,24.807 0,13.69 30.84,24.78 68.886,24.78 38.036,0 68.875,-11.09 68.875,-24.78"
       style="fill:#f7939c;fill-opacity:1;fill-rule:nonzero;stroke:none"
       id="path40"
       inkscape:connector-curvature="0" /><path
       d="m 1108.13,1023.69 c 0,-13.71 -30.84,-24.807 -68.88,-24.807 -38.05,0 -68.891,11.097 -68.891,24.807 0,13.69 30.841,24.78 68.891,24.78 38.04,0 68.88,-11.09 68.88,-24.78"
       style="fill:#f7939c;fill-opacity:1;fill-rule:nonzero;stroke:none"
       id="path42"
       inkscape:connector-curvature="0" /><path
       d="m 1141.82,1054.98 c -10.03,-28.71 -22.94,-71.156 -3.31,-78.023 19.64,-6.855 43.69,10.852 53.71,39.563 10.04,28.7 2.24,57.55 -17.39,64.4 -19.66,6.87 -22.98,2.75 -33.01,-25.94"
       style="fill:#de9284;fill-opacity:1;fill-rule:nonzero;stroke:none"
       id="path44"
       inkscape:connector-curvature="0" /><path
       d="m 743.074,1580.98 c 0,0 -117.039,-27.59 -165.054,-195.24 l 39.656,7.99 c 0,0 39.289,126.23 125.398,187.25"
       style="fill:#c79485;fill-opacity:1;fill-rule:nonzero;stroke:none"
       id="path46"
       inkscape:connector-curvature="0" /><path
       d="m 908.43,1578.65 c 0,0 -50.285,-10.45 -83.75,-143.75 l 32.918,5.43 c 0,0 11.25,93.32 50.832,138.32"
       style="fill:#c79485;fill-opacity:1;fill-rule:nonzero;stroke:none"
       id="path48"
       inkscape:connector-curvature="0" /><path
       d="m 722.383,449.07 50,76.25 61.269,4.512 46.231,-69.512 c 0,0 -101.25,37.5 -157.5,-11.25"
       style="fill:#aac0db;fill-opacity:1;fill-rule:nonzero;stroke:none"
       id="path50"
       inkscape:connector-curvature="0" /><path
       d="m 721.934,10.3203 65.859,466.5587 -14.57,52.953 28.32,39.668 7.5,0 24.609,-39.668 -18.996,-52.953 71.25,-466.5587"
       style="fill:#51ade5;fill-opacity:1;fill-rule:nonzero;stroke:none"
       id="path52"
       inkscape:connector-curvature="0" /><path
       d="m 735.547,128.559 c 47.5,-37.5004 96.25,-8.75 96.25,-8.75 46.25,2.5 93.508,32.543 91.25,101.25 -2.5,76.25 -33.75,121.25 -76.25,146.25 -36.223,21.312 -91.25,-15 -91.25,-15 -36.25,13.75 -66.25,-27.5 -66.25,-27.5 l -3.313,-47.5 49.563,-148.75"
       style="fill:#ffffff;fill-opacity:1;fill-rule:nonzero;stroke:none"
       id="path54"
       inkscape:connector-curvature="0" /><path
       d="m 322.578,648.559 18.567,-55 c 0,0 -29.692,-140.559 57.808,-173.059 0,0 172.844,-248.191 220.344,-274.441 47.5,-26.25 141.25,-8.75 141.25,-8.75 11.25,153.75 -46.25,168.75 -46.25,168.75 -170,77.5 -201.902,160 -201.902,160 5,73.75 -5,142.5 -37.5,196.25 -13.723,22.703 -62.5,15 -62.5,15 l -8.75,1.25 c -20,17.5 -57.676,2.621 -57.676,2.621 l -6.25,-1.129 c -23.75,10 -38.391,-14.61 -38.391,-14.61 l 21.25,-16.882"
       style="fill:#fcd0b4;fill-opacity:1;fill-rule:nonzero;stroke:none"
       id="path56"
       inkscape:connector-curvature="0" /><path
       d="m 88.1719,471.941 c 41.0471,-7.07 101.1371,19.141 128.6441,124.297 17.586,67.192 -16.394,91.231 -16.394,91.231 l -4.067,1.761 c 11.555,111.168 16.172,338.92 16.172,338.92 0,0 33.457,34.85 44.231,56.37 16.465,32.94 10.918,59.05 10.918,59.05 0,0 34.16,-2.81 43.855,1.33 9.668,4.15 15.278,61.8 12.461,88.51 -2.344,22.06 -48.179,36.63 -68.894,42.43 -15.528,4.33 -110.047,8.21 -137.727,1.29 -27.664,-6.92 -36.3437,-14.78 -40.1132,-53.95 -2.9726,-30.79 15.6328,-187.57 15.6328,-187.57 0,0 -85.48826,-352.419 -85.48826,-481.622 0,-13.609 16.08206,-64.269 77.39066,-79.269 l 3.3789,-2.778"
       style="fill:#fcd0b4;fill-opacity:1;fill-rule:nonzero;stroke:none"
       id="path58"
       inkscape:connector-curvature="0" /><path
       d="m 262.258,1210.21 33.66,-8.83 c 0,0 -19.258,-37.77 -9.746,-50.59 0.281,-0.4 0.598,-0.77 0.937,-1.11 11.621,-11.63 -22.453,0.8 -22.453,0.8 l -2.398,59.73"
       style="fill:#de9284;fill-opacity:1;fill-rule:nonzero;stroke:none"
       id="path60"
       inkscape:connector-curvature="0" /><path
       d="m 30.1367,510.148 c 0,0 65.9649,-31.589 150.8083,7.672 0,0 -31.882,-34.121 -46.707,-39.961 -14.824,-5.839 -45.8122,-5.39 -55.6833,-3.14 -9.8828,2.242 -48.418,35.429 -48.418,35.429"
       style="fill:#de9284;fill-opacity:1;fill-rule:nonzero;stroke:none"
       id="path62"
       inkscape:connector-curvature="0" /><path
       d="m 758.828,182.309 c 0,0 -36.25,-38.75 -127.5,-37.5 l 10.723,-10.129 c 0,0 108.203,-3.192 115.097,2.129 0,0 5.403,33.839 1.68,45.5"
       style="fill:#de9284;fill-opacity:1;fill-rule:nonzero;stroke:none"
       id="path64"
       inkscape:connector-curvature="0" /><path
       d="m 867.961,688.699 c 0,0 0.809,-36.269 3.25,-53.379 0,0 -21.633,-47.191 -67.949,-60.941 -46.321,13.75 -69.746,60.531 -69.746,60.531 1.218,19.981 1.629,53.789 1.629,53.789"
       style="fill:none;stroke:#231f20;stroke-width:14;stroke-linecap:round;stroke-linejoin:round;stroke-miterlimit:10;stroke-dasharray:none;stroke-opacity:1"
       id="path66"
       inkscape:connector-curvature="0" /><path
       d="m 830.613,372.238 -15.972,104.641 18.113,51.371"
       style="fill:none;stroke:#231f20;stroke-width:14;stroke-linecap:round;stroke-linejoin:round;stroke-miterlimit:10;stroke-dasharray:none;stroke-opacity:1"
       id="path68"
       inkscape:connector-curvature="0" /><path
       d="M 885.891,10.3203 868.008,127.371"
       style="fill:none;stroke:#231f20;stroke-width:14;stroke-linecap:round;stroke-linejoin:round;stroke-miterlimit:10;stroke-dasharray:none;stroke-opacity:1"
       id="path70"
       inkscape:connector-curvature="0" /><path
       d="M 738.594,126.039 721.914,7"
       style="fill:none;stroke:#231f20;stroke-width:14;stroke-linecap:round;stroke-linejoin:round;stroke-miterlimit:10;stroke-dasharray:none;stroke-opacity:1"
       id="path72"
       inkscape:connector-curvature="0" /><path
       d="m 773.691,527.309 14.082,-50.43 -16.125,-115.07"
       style="fill:none;stroke:#231f20;stroke-width:14;stroke-linecap:round;stroke-linejoin:round;stroke-miterlimit:10;stroke-dasharray:none;stroke-opacity:1"
       id="path74"
       inkscape:connector-curvature="0" /><path
       d="M 803.418,574.379 720.449,450.73 c 0,0 -23.75,32.379 -31.347,112.071 -1.895,19.937 -0.079,49.14 9.503,75.039 9.5,25.648 30.274,32.519 36.083,34.18"
       style="fill:none;stroke:#231f20;stroke-width:12;stroke-linecap:round;stroke-linejoin:round;stroke-miterlimit:10;stroke-dasharray:none;stroke-opacity:1"
       id="path76"
       inkscape:connector-curvature="0" /><path
       d="M 803.418,574.379 886.387,450.73 c 0,0 23.75,32.379 31.347,112.071 1.895,19.937 0.079,49.14 -9.504,75.039 -9.5,25.648 -30.269,32.519 -36.082,34.18"
       style="fill:none;stroke:#231f20;stroke-width:12;stroke-linecap:round;stroke-linejoin:round;stroke-miterlimit:10;stroke-dasharray:none;stroke-opacity:1"
       id="path78"
       inkscape:connector-curvature="0" /><path
       d="m 706.699,1147.18 c 0,-45.45 -28.242,-82.29 -63.078,-82.29 -34.844,0 -63.101,36.84 -63.101,82.29 0,45.45 28.257,82.29 63.101,82.29 34.836,0 63.078,-36.84 63.078,-82.29"
       style="fill:#ffffff;fill-opacity:1;fill-rule:nonzero;stroke:none"
       id="path80"
       inkscape:connector-curvature="0" /><path
       d="m 696.863,1135.3 c 0,-30.96 -17.422,-56.06 -38.894,-56.06 -21.485,0 -38.899,25.1 -38.899,56.06 0,30.97 17.414,56.06 38.899,56.06 21.472,0 38.894,-25.09 38.894,-56.06"
       style="fill:#231f20;fill-opacity:1;fill-rule:nonzero;stroke:none"
       id="path82"
       inkscape:connector-curvature="0" /><path
       d="m 696.184,1154.07 c 0,-6.34 -5.137,-11.49 -11.489,-11.49 -6.343,0 -11.504,5.15 -11.504,11.49 0,6.34 5.161,11.49 11.504,11.49 6.352,0 11.489,-5.15 11.489,-11.49"
       style="fill:#ffffff;fill-opacity:1;fill-rule:nonzero;stroke:none"
       id="path84"
       inkscape:connector-curvature="0" /><path
       d="m 649.805,1202.11 c 15.957,0 31.172,-2.9 45.215,-7.99 -12.618,18.38 -30.899,30.02 -51.29,30.02 -23.046,0 -43.378,-14.81 -55.898,-37.44 18.262,9.74 39.395,15.41 61.973,15.41"
       style="fill:#d8e5f6;fill-opacity:1;fill-rule:nonzero;stroke:none"
       id="path86"
       inkscape:connector-curvature="0" /><path
       d="m 699.797,1194.88 c -24.238,51.13 -119.359,55.62 -122.981,-45.18"
       style="fill:none;stroke:#231f20;stroke-width:16;stroke-linecap:round;stroke-linejoin:round;stroke-miterlimit:10;stroke-dasharray:none;stroke-opacity:1"
       id="path88"
       inkscape:connector-curvature="0" /><path
       d="m 896.379,1147.18 c 0,-45.45 28.238,-82.29 63.074,-82.29 34.844,0 63.107,36.84 63.107,82.29 0,45.45 -28.263,82.29 -63.107,82.29 -34.836,0 -63.074,-36.84 -63.074,-82.29"
       style="fill:#ffffff;fill-opacity:1;fill-rule:nonzero;stroke:none"
       id="path90"
       inkscape:connector-curvature="0" /><path
       d="m 906.211,1135.3 c 0,-30.96 17.422,-56.06 38.894,-56.06 21.489,0 38.899,25.1 38.899,56.06 0,30.97 -17.41,56.06 -38.899,56.06 -21.472,0 -38.894,-25.09 -38.894,-56.06"
       style="fill:#231f20;fill-opacity:1;fill-rule:nonzero;stroke:none"
       id="path92"
       inkscape:connector-curvature="0" /><path
       d="m 960.227,1154.07 c 0,-6.34 5.132,-11.49 11.484,-11.49 6.348,0 11.504,5.15 11.504,11.49 0,6.34 -5.156,11.49 -11.504,11.49 -6.352,0 -11.484,-5.15 -11.484,-11.49"
       style="fill:#ffffff;fill-opacity:1;fill-rule:nonzero;stroke:none"
       id="path94"
       inkscape:connector-curvature="0" /><path
       d="m 952.441,1202.11 c -15.957,0 -31.171,-2.9 -45.214,-7.99 12.617,18.38 30.898,30.02 51.289,30.02 23.047,0 43.374,-14.81 55.894,-37.44 -18.258,9.74 -39.39,15.41 -61.969,15.41"
       style="fill:#d8e5f6;fill-opacity:1;fill-rule:nonzero;stroke:none"
       id="path96"
       inkscape:connector-curvature="0" /><path
       d="m 903.281,1194.88 c 24.239,51.13 119.359,55.62 122.979,-45.18"
       style="fill:none;stroke:#231f20;stroke-width:16;stroke-linecap:round;stroke-linejoin:round;stroke-miterlimit:10;stroke-dasharray:none;stroke-opacity:1"
       id="path98"
       inkscape:connector-curvature="0" /><path
       d="m 1021.83,1579.9 c 0,0 23.33,-114.99 -203.346,-148.32 0,0 33.34,113.32 60,133.32 0,0 -116.66,-148.32 -306.66,-183.32 0,0 33.332,143.33 146.66,195"
       style="fill:none;stroke:#231f20;stroke-width:14;stroke-linecap:round;stroke-linejoin:round;stroke-miterlimit:10;stroke-dasharray:none;stroke-opacity:1"
       id="path100"
       inkscape:connector-curvature="0" /><path
       d="m 797.156,1038.47 c 0,0 -42.5,-16.67 -38.328,-36.67 4.168,-19.999 19.168,-42.499 19.168,-42.499"
       style="fill:none;stroke:#231f20;stroke-width:14;stroke-linecap:round;stroke-linejoin:round;stroke-miterlimit:10;stroke-dasharray:none;stroke-opacity:1"
       id="path102"
       inkscape:connector-curvature="0" /><path
       d="m 776.328,1115.97 c 0,0 12.488,-56.67 9.168,-81.67"
       style="fill:none;stroke:#231f20;stroke-width:14;stroke-linecap:round;stroke-linejoin:round;stroke-miterlimit:10;stroke-dasharray:none;stroke-opacity:1"
       id="path104"
       inkscape:connector-curvature="0" /><path
       d="m 490.078,927.211 c -106.25,-5 -153.75,141.589 -116.25,194.089 27.051,37.88 81.692,13.53 91.902,-7.23"
       style="fill:none;stroke:#231f20;stroke-width:14;stroke-linecap:round;stroke-linejoin:round;stroke-miterlimit:10;stroke-dasharray:none;stroke-opacity:1"
       id="path106"
       inkscape:connector-curvature="0" /><path
       d="m 470.129,1048.47 c 0,0 -35.598,72.82 -75.93,38.67"
       style="fill:none;stroke:#231f20;stroke-width:14;stroke-linecap:round;stroke-linejoin:round;stroke-miterlimit:10;stroke-dasharray:none;stroke-opacity:1"
       id="path108"
       inkscape:connector-curvature="0" /><path
       d="m 1115.08,927.211 c 106.25,-5 153.75,141.589 116.25,194.089 -27.05,37.88 -81.69,13.53 -91.91,-7.23"
       style="fill:none;stroke:#231f20;stroke-width:14;stroke-linecap:round;stroke-linejoin:round;stroke-miterlimit:10;stroke-dasharray:none;stroke-opacity:1"
       id="path110"
       inkscape:connector-curvature="0" /><path
       d="m 1135.03,1048.47 c 0,0 35.6,72.82 75.93,38.67"
       style="fill:none;stroke:#231f20;stroke-width:14;stroke-linecap:round;stroke-linejoin:round;stroke-miterlimit:10;stroke-dasharray:none;stroke-opacity:1"
       id="path112"
       inkscape:connector-curvature="0" /><path
       d="m 1005.38,1518.58 c 0,0 -0.3,-78.94 106.99,-206.63 7.38,-8.77 24.28,-43.95 25.53,-74.71 4.24,-103.85 4.9,-330.271 -70.32,-411.275 -68.564,-73.824 -135.002,-109.996 -193.752,-127.496 -70,-24.18 -142.5,0 -142.5,0 -58.75,17.5 -125.183,53.672 -193.75,127.496 -69.023,74.332 -74.14,269.535 -71.25,383.105 0,0 6.25,213.07 133.192,244.58"
       style="fill:none;stroke:#231f20;stroke-width:14;stroke-linecap:round;stroke-linejoin:round;stroke-miterlimit:10;stroke-dasharray:none;stroke-opacity:1"
       id="path114"
       inkscape:connector-curvature="0" /><path
       d="m 394.734,1259.18 c -13.804,-27.65 -25.906,-50.11 -25.906,-50.11 -77.5,302.08 86.25,356.82 86.25,356.82 0,0 -64.824,20 -63.035,83.75 0,0 89.285,-21.25 187.613,36.25 91.02,53.23 220.157,89.63 350.84,64.69 117.914,-22.5 140.834,-106.09 140.834,-106.09 0,0 117.1,-16.81 161.25,-142.91 47.5,-135.69 7.5,-266.94 7.5,-266.94 0,0 -10.82,33.52 -24.27,69.47"
       style="fill:none;stroke:#231f20;stroke-width:14;stroke-linecap:round;stroke-linejoin:round;stroke-miterlimit:10;stroke-dasharray:none;stroke-opacity:1"
       id="path116"
       inkscape:connector-curvature="0" /><path
       d="m 385.73,1241.38 c 0,0 -4.011,-34.2 17.239,-93.79"
       style="fill:none;stroke:#231f20;stroke-width:14;stroke-linecap:round;stroke-linejoin:round;stroke-miterlimit:10;stroke-dasharray:none;stroke-opacity:1"
       id="path118"
       inkscape:connector-curvature="0" /><path
       d="m 1227.88,1270.7 c 0,0 -2.61,-53.52 -32.82,-124.55"
       style="fill:none;stroke:#231f20;stroke-width:14;stroke-linecap:round;stroke-linejoin:round;stroke-miterlimit:10;stroke-dasharray:none;stroke-opacity:1"
       id="path120"
       inkscape:connector-curvature="0" /><path
       d="m 706.863,1295.82 c -4.121,-3.46 -15.015,3.39 -30.742,12.97 -15.523,9.39 -37.195,21.26 -57.793,18.28 -20.73,-2.46 -38.543,-19.16 -49.148,-32.36 -11.043,-13.39 -15.203,-23.54 -20.364,-24.01 -2.527,-0.15 -5.347,3.16 -6.48,9.76 -1.113,6.53 -0.441,15.98 3.262,26.65 3.711,10.64 10.308,22.72 21.304,33.8 10.825,10.96 27.036,21.06 46.567,23.52 19.527,2.62 37.769,-3.06 50.855,-10.63 13.344,-7.61 22.746,-16.86 29.516,-25.11 13.394,-16.75 16.851,-29.71 13.023,-32.87"
       style="fill:#231f20;fill-opacity:1;fill-rule:nonzero;stroke:none"
       id="path122"
       inkscape:connector-curvature="0" /><path
       d="m 898.293,1295.82 c -3.828,3.16 -0.371,16.12 13.023,32.87 6.77,8.25 16.172,17.5 29.512,25.11 13.09,7.57 31.328,13.25 50.86,10.63 19.532,-2.46 35.742,-12.56 46.562,-23.52 11,-11.08 17.6,-23.16 21.31,-33.8 3.7,-10.67 4.38,-20.12 3.25,-26.65 -1.12,-6.6 -3.95,-9.91 -6.49,-9.76 -5.15,0.47 -9.3,10.62 -20.34,24.01 -10.61,13.2 -28.42,29.9 -49.156,32.36 -20.594,2.98 -42.261,-8.89 -57.793,-18.28 -15.718,-9.58 -26.621,-16.43 -30.738,-12.97"
       style="fill:#231f20;fill-opacity:1;fill-rule:nonzero;stroke:none"
       id="path124"
       inkscape:connector-curvature="0" /><path
       d="M 437.93,366.73 485.137,13.1484"
       style="fill:none;stroke:#231f20;stroke-width:14;stroke-linecap:round;stroke-linejoin:round;stroke-miterlimit:10;stroke-dasharray:none;stroke-opacity:1"
       id="path126"
       inkscape:connector-curvature="0" /><path
       d="m 660.195,906.164 c 29.676,-32.707 95.535,-56.699 142.852,-56.699 l -0.93,0 c 47.309,0 113.156,23.992 142.844,56.699"
       style="fill:none;stroke:#231f20;stroke-width:14;stroke-linecap:round;stroke-linejoin:round;stroke-miterlimit:10;stroke-dasharray:none;stroke-opacity:1"
       id="path128"
       inkscape:connector-curvature="0" /><path
       d="m 787.773,476.879 c 0,0 14.903,6.633 26.524,0.73"
       style="fill:none;stroke:#231f20;stroke-width:12;stroke-linecap:round;stroke-linejoin:round;stroke-miterlimit:10;stroke-dasharray:none;stroke-opacity:1"
       id="path130"
       inkscape:connector-curvature="0" /><path
       d="m 913.477,628.148 c 0,0 100.013,-30 148.343,-60 103.33,-23.339 134.98,-91.679 128.31,-193.339 -5.91,-90.028 -91.3,-365.00041 -91.3,-365.00041"
       style="fill:none;stroke:#231f20;stroke-width:14;stroke-linecap:round;stroke-linejoin:round;stroke-miterlimit:10;stroke-dasharray:none;stroke-opacity:1"
       id="path132"
       inkscape:connector-curvature="0" /><path
       d="m 257.371,676.059 c -24.793,19.75 -57.996,7.953 -57.996,7.953 0,0 33.313,-23.571 16.074,-89.43 C 188.477,491.469 129.57,465.789 89.3281,472.719 c 0,0 22.6449,-44.348 103.1719,-28.86 11.414,-17.91 76.555,-35.238 101.328,-12.8 73.75,76.25 52.5,158.75 31.875,207.5 -17.898,42.312 -66.797,37.5 -66.797,37.5 l -1.535,0 z"
       style="fill:none;stroke:#231f20;stroke-width:14;stroke-linecap:round;stroke-linejoin:round;stroke-miterlimit:10;stroke-dasharray:none;stroke-opacity:1"
       id="path134"
       inkscape:connector-curvature="0" /><path
       d="m 300.82,667.551 c 6.289,6.969 21.082,20 38.899,12.5 23.75,-10 44.961,-47.25 44.961,-47.25"
       style="fill:none;stroke:#231f20;stroke-width:14;stroke-linecap:round;stroke-linejoin:round;stroke-miterlimit:10;stroke-dasharray:none;stroke-opacity:1"
       id="path136"
       inkscape:connector-curvature="0" /><path
       d="m 345.969,681.18 c 0,0 37.676,14.879 57.676,-2.621 20,-17.5 25,-45 25,-45"
       style="fill:none;stroke:#231f20;stroke-width:14;stroke-linecap:round;stroke-linejoin:round;stroke-miterlimit:10;stroke-dasharray:none;stroke-opacity:1"
       id="path138"
       inkscape:connector-curvature="0" /><path
       d="m 408.828,677.309 c 0,0 52.344,7.703 66.067,-15 32.5,-53.75 42.5,-122.5 37.5,-196.25 0,0 31.902,-82.5 201.902,-160 0,0 57.5,-15 46.25,-168.75 0,0 -93.75,-17.5 -141.25,8.75 -47.5,26.25 -220.344,274.441 -220.344,274.441 -28.711,10.66 -50.957,44.309 -59.285,79.309"
       style="fill:none;stroke:#231f20;stroke-width:14;stroke-linecap:round;stroke-linejoin:round;stroke-miterlimit:10;stroke-dasharray:none;stroke-opacity:1"
       id="path140"
       inkscape:connector-curvature="0" /><path
       d="m 689.297,324.809 c 0,0 30,41.25 66.25,27.5 0,0 55.027,36.312 91.25,15 42.5,-25 73.75,-70 76.25,-146.25 2.258,-68.707 -45,-98.75 -91.25,-101.25 0,0 -48.75,-28.7504 -96.25,8.75"
       style="fill:none;stroke:#231f20;stroke-width:14;stroke-linecap:round;stroke-linejoin:round;stroke-miterlimit:10;stroke-dasharray:none;stroke-opacity:1"
       id="path142"
       inkscape:connector-curvature="0" /><path
       d="m 755.547,352.309 c 0,0 55,-37.5 72.5,-77.5 17.5,-40 37.5,15 22.5,33.75"
       style="fill:none;stroke:#231f20;stroke-width:12;stroke-linecap:round;stroke-linejoin:round;stroke-miterlimit:10;stroke-dasharray:none;stroke-opacity:1"
       id="path144"
       inkscape:connector-curvature="0" /><path
       d="m 860.547,193.559 c 0,0 2.5,-51.25 -28.75,-73.75"
       style="fill:none;stroke:#231f20;stroke-width:12;stroke-linecap:round;stroke-linejoin:round;stroke-miterlimit:10;stroke-dasharray:none;stroke-opacity:1"
       id="path146"
       inkscape:connector-curvature="0" /><path
       d="m 858.047,368.559 c 0,0 163.753,106.25 203.753,108.75"
       style="fill:none;stroke:#231f20;stroke-width:14;stroke-linecap:round;stroke-linejoin:round;stroke-miterlimit:10;stroke-dasharray:none;stroke-opacity:1"
       id="path148"
       inkscape:connector-curvature="0" /><path
       d="m 909.297,156.059 c 0,0 119.173,20.429 159.173,38.75"
       style="fill:none;stroke:#231f20;stroke-width:14;stroke-linecap:round;stroke-linejoin:round;stroke-miterlimit:10;stroke-dasharray:none;stroke-opacity:1"
       id="path150"
       inkscape:connector-curvature="0" /><path
       d="m 487.922,640.461 c 0,0 50.183,5.418 107.625,-5.902 34.172,1.66 76.672,2.082 97.93,0.25"
       style="fill:none;stroke:#231f20;stroke-width:14;stroke-linecap:round;stroke-linejoin:round;stroke-miterlimit:10;stroke-dasharray:none;stroke-opacity:1"
       id="path152"
       inkscape:connector-curvature="0" /><path
       d="m 406.688,404.359 -112.86,24.2"
       style="fill:none;stroke:#231f20;stroke-width:14;stroke-linecap:round;stroke-linejoin:round;stroke-miterlimit:10;stroke-dasharray:none;stroke-opacity:1"
       id="path154"
       inkscape:connector-curvature="0" /><path
       d="m 190.52,649.91 c 15.933,81.149 21.597,378.24 21.597,378.24 0,0 33.457,34.85 44.231,56.37 16.465,32.94 10.918,59.05 10.918,59.05 0,0 34.16,-2.81 43.855,1.33 9.672,4.15 15.285,61.8 12.465,88.51 -2.348,22.06 -48.188,36.63 -68.891,42.43 -15.535,4.33 -110.047,8.21 -137.73,1.29 -27.6603,-6.92 -36.3517,-14.78 -40.1095,-53.95 -2.9688,-30.79 15.625,-187.57 15.625,-187.57 C 92.4805,1035.61 7,683.191 7,553.988 7,540.379 23.0859,489.719 84.3945,474.719"
       style="fill:none;stroke:#231f20;stroke-width:14;stroke-linecap:round;stroke-linejoin:round;stroke-miterlimit:10;stroke-dasharray:none;stroke-opacity:1"
       id="path156"
       inkscape:connector-curvature="0" /><path
       d="m 267.156,1149.93 c 0,0 2.192,50.77 -3.008,62.04 l 36.418,-12.15 c 0,0 -22.57,-8.67 -29.48,-20.81"
       style="fill:none;stroke:#231f20;stroke-width:14;stroke-linecap:round;stroke-linejoin:round;stroke-miterlimit:10;stroke-dasharray:none;stroke-opacity:1"
       id="path158"
       inkscape:connector-curvature="0" /><path
       d="m 192.219,445.012 c 0,0 49.668,2.617 69.668,55.117"
       style="fill:none;stroke:#231f20;stroke-width:12;stroke-linecap:round;stroke-linejoin:round;stroke-miterlimit:10;stroke-dasharray:none;stroke-opacity:1"
       id="path160"
       inkscape:connector-curvature="0" /><path
       d="m 284.297,603.309 c 0,45.632 -11.25,61.25 -29.375,73.75"
       style="fill:none;stroke:#231f20;stroke-width:12;stroke-linecap:round;stroke-linejoin:round;stroke-miterlimit:10;stroke-dasharray:none;stroke-opacity:1"
       id="path162"
       inkscape:connector-curvature="0" /></g></svg>